<svg width="32" height="32" viewBox="0 0 32 32" fill="none" xmlns="http://www.w3.org/2000/svg">
<g opacity="0.7">
<g clip-path="url(#clip0_453_437)">
<mask id="mask0_453_437" style="mask-type:alpha" maskUnits="userSpaceOnUse" x="0" y="0" width="32" height="32">
<path d="M32 0H0V32H32V0Z" fill="#D9D9D9"/>
</mask>
<g mask="url(#mask0_453_437)">
<mask id="mask1_453_437" style="mask-type:alpha" maskUnits="userSpaceOnUse" x="1" y="1" width="30" height="30">
<path d="M31 1H1V31H31V1Z" fill="#D9D9D9"/>
</mask>
<g mask="url(#mask1_453_437)">
<path d="M5.74444 26C5.12222 26 4.59259 25.7752 4.15556 25.3257C3.71852 24.8762 3.5 24.3319 3.5 23.6929V8.30714C3.5 7.66905 3.71852 7.12476 4.15556 6.67429C4.59259 6.22476 5.12222 6 5.74444 6H26.2569C26.8773 6 27.4065 6.22476 27.8444 6.67429C28.2815 7.12381 28.5 7.66857 28.5 8.30857V23.6929C28.5 24.331 28.2815 24.8752 27.8444 25.3257C27.4074 25.7752 26.8782 26 26.2569 26H5.74444ZM5.74444 24.5714H26.2569C26.506 24.5714 26.7106 24.489 26.8708 24.3243C27.031 24.1595 27.1111 23.949 27.1111 23.6929V8.30714C27.1111 8.05095 27.031 7.84048 26.8708 7.67571C26.7106 7.51095 26.506 7.42857 26.2569 7.42857H5.74306C5.49398 7.42857 5.28935 7.51095 5.12917 7.67571C4.96898 7.84048 4.88889 8.05143 4.88889 8.30857V23.6929C4.88889 23.949 4.96898 24.1595 5.12917 24.3243C5.28935 24.489 5.49444 24.5714 5.74444 24.5714ZM8.62778 21.88H17.8167C18.1389 21.88 18.4065 21.7705 18.6194 21.5514C18.8324 21.3324 18.9389 21.0571 18.9389 20.7257V11.2743C18.9389 10.9429 18.8324 10.6676 18.6194 10.4486C18.4065 10.2295 18.1389 10.12 17.8167 10.12H8.62778C8.30556 10.12 8.03843 10.2295 7.82639 10.4486C7.61343 10.6676 7.50694 10.9429 7.50694 11.2743V20.7257C7.50694 21.0571 7.61343 21.3324 7.82639 21.5514C8.03935 21.7705 8.30648 21.88 8.62778 21.88ZM23.8 21.88C24.0861 21.88 24.3356 21.7705 24.5486 21.5514C24.7616 21.3324 24.8681 21.0752 24.8681 20.78C24.8681 20.4848 24.7616 20.2276 24.5486 20.0086C24.3356 19.7895 24.0856 19.6805 23.7986 19.6814C23.5116 19.6824 23.262 19.7919 23.05 20.01C22.838 20.2281 22.7315 20.4852 22.7306 20.7814C22.7306 21.0757 22.837 21.3324 23.05 21.5514C23.263 21.7705 23.513 21.88 23.8 21.88ZM8.89583 20.4514V11.55H17.5486V20.45L8.89583 20.4514ZM23.7986 17.0986C24.0856 17.0986 24.3356 16.989 24.5486 16.77C24.7616 16.551 24.8681 16.2943 24.8681 16C24.8681 15.7057 24.7616 15.4486 24.5486 15.2286C24.3356 15.0086 24.0856 14.899 23.7986 14.9C23.5116 14.901 23.262 15.0105 23.05 15.2286C22.838 15.4467 22.7315 15.7038 22.7306 16C22.7296 16.2962 22.8361 16.5533 23.05 16.7714C23.2639 16.9895 23.5139 17.099 23.8 17.1M23.8 12.3186C24.0861 12.3186 24.3356 12.209 24.5486 11.99C24.7616 11.771 24.8681 11.5138 24.8681 11.2186C24.8681 10.9233 24.7616 10.6671 24.5486 10.45C24.3356 10.2329 24.0856 10.1233 23.7986 10.1214C23.5116 10.1195 23.262 10.229 23.05 10.45C22.838 10.671 22.7315 10.9276 22.7306 11.22C22.7306 11.5152 22.837 11.7724 23.05 11.9914C23.263 12.2105 23.513 12.3195 23.8 12.3186Z" fill="#172439" fill-opacity="0.7"/>
</g>
</g>
</g>
</g>
<defs>
<clipPath id="clip0_453_437">
<rect width="32" height="32" fill="white"/>
</clipPath>
</defs>
</svg>
