<?xml version="1.0" encoding="utf-8"?>
<!-- Generator: Adobe Illustrator 25.0.1, SVG Export Plug-In . SVG Version: 6.00 Build 0)  -->
<svg version="1.1" id="Layer_1" xmlns="http://www.w3.org/2000/svg" xmlns:xlink="http://www.w3.org/1999/xlink" x="0px" y="0px"
	 viewBox="0 0 24 24" style="enable-background:new 0 0 24 24;" xml:space="preserve">
<style type="text/css">
	.st0{fill:#000;}
</style>
<g>
	<path class="st0" d="M12,13l7.3,7.3c0.1,0.1,0.3,0.2,0.5,0.2c0,0,0,0,0,0c0.2,0,0.4-0.1,0.5-0.2s0.2-0.3,0.2-0.5
		c0-0.2-0.1-0.4-0.2-0.5L13,12l7.3-7.3c0.3-0.3,0.3-0.7,0-1c-0.3-0.3-0.7-0.3-1,0L12,11L4.7,3.7c-0.3-0.3-0.7-0.3-1,0
		c-0.3,0.3-0.3,0.7,0,1L11,12l-7.3,7.3c-0.1,0.1-0.2,0.3-0.2,0.5c0,0.2,0.1,0.4,0.2,0.5c0.3,0.3,0.7,0.3,1,0L12,13z"/>
</g>
</svg>
